<svg width="60" height="60" viewBox="0 0 60 60" fill="none" xmlns="http://www.w3.org/2000/svg">
<path d="M57 0H3C1.3432 0 0 1.3432 0 3V47C0 48.6568 1.3432 50 3 50H20.382L18.382 54H15C13.3432 54 12 55.3432 12 57C12 58.6568 13.3432 60 15 60H45C46.6568 60 48 58.6569 48 57C48 55.3431 46.6568 54 45 54H41.618L39.6179 50H57C58.6568 50 60 48.6568 60 47V3C60 1.3432 58.6569 0 57 0ZM3 2.00004H57C57.5523 2.00004 58 2.44781 58 3V42H2.00004V3C2.00004 2.4477 2.4477 2.00004 3 2.00004ZM46 57C46 57.5523 45.5523 58 45 58H15C14.4477 58 14 57.5523 14 57C14 56.4477 14.4478 56 15 56H45C45.5523 56 46 56.4477 46 57ZM39.382 54H20.618L22.618 50H37.382L39.382 54ZM57 48H3C2.4477 48 2.00004 47.5522 2.00004 47V44H58.0001V47C58 47.5523 57.5523 48 57 48Z" fill="#F2F5F9"/>
<path d="M26.441 21.729C27.2845 22.157 28.2978 22.069 29.055 21.502L34.927 17.158C35.6027 16.6465 35.9997 15.848 35.9997 15.0005C35.9997 14.153 35.6027 13.3545 34.927 12.8429L29.055 8.49996C28.2977 7.93324 27.2845 7.84524 26.441 8.27297C25.5479 8.72953 24.9898 9.65192 24.9999 10.6549V19.345C24.989 20.3487 25.5472 21.2721 26.441 21.729ZM27 10.655C26.9873 10.4054 27.1208 10.1713 27.3419 10.055C27.4113 10.0186 27.4885 9.99973 27.5669 10.0001C27.6758 10.0009 27.7812 10.0378 27.8669 10.1051L33.7409 14.4511C33.9067 14.5855 34.0031 14.7877 34.0031 15.0011C34.0031 15.2146 33.9067 15.4166 33.7409 15.551L27.8649 19.9C27.7164 20.0204 27.5098 20.0394 27.3419 19.948C27.1207 19.8318 26.9872 19.5976 27 19.348V10.655Z" fill="#F2F5F9"/>
<path d="M4.92993 39H4.9999C5.52595 39.0013 5.96306 38.5948 5.99986 38.07C6.00783 37.9701 6.7849 28 13.4999 28C20.1998 28 20.9999 37.971 20.9999 38.071C21.0371 38.5954 21.4741 39.0013 21.9998 38.9999C22.5259 39.0012 22.963 38.5947 22.9998 38.0699C23.0077 37.9699 23.7848 27.9999 30.4998 27.9999C37.1997 27.9999 37.9947 37.9709 37.9998 38.0708C38.0368 38.5858 38.4597 38.9878 38.9758 38.9988H38.9999C39.5075 38.9986 39.9344 38.6181 39.9929 38.1138C40.0039 38.0139 41.1409 28.8489 47.1609 28.0588C47.6997 29.9917 49.5906 31.2234 51.5763 30.9353C53.562 30.6471 55.0247 28.9287 54.9919 26.9223C54.959 24.9159 53.4409 23.2464 51.4468 23.0234C49.4526 22.8004 47.6032 24.0933 47.128 26.0428C42.5969 26.4798 40.263 30.2958 39.097 33.4839C37.866 29.7908 35.274 25.9999 30.5 25.9999C25.848 25.9999 23.268 29.5999 22.0001 33.1999C20.7321 29.5999 18.1521 25.9999 13.5001 25.9999C6.65013 25.9999 4.29208 33.7999 4.00005 37.93C3.98083 38.1953 4.06814 38.4574 4.24263 38.6583C4.41712 38.8592 4.6645 38.9821 4.92993 39ZM51 25C52.1046 25 53 25.8954 53 27C53 28.1046 52.1046 29.0001 51 29.0001C49.8954 29.0001 48.9999 28.1046 48.9999 27C48.9999 25.8954 49.8954 25 51 25Z" fill="#F2F5F9"/>
</svg>
