<svg width="54" height="54" viewBox="0 0 54 54" fill="none" xmlns="http://www.w3.org/2000/svg">
<path fill-rule="evenodd" clip-rule="evenodd" d="M8.45161 35.1912C8.19787 35.1912 7.94198 35.1829 7.68291 35.1659C7.3436 35.1435 7.08556 34.85 7.10806 34.5102C7.13058 34.1703 7.42598 33.9138 7.76429 33.9353C13.9937 34.3454 19.0186 28.9083 19.069 28.8534C19.2981 28.6013 19.6877 28.5831 19.9393 28.8123C20.192 29.0414 20.2101 29.4315 19.9811 29.6833C19.7691 29.9164 14.8918 35.1912 8.45161 35.1912ZM19.5251 47.1066C19.357 47.1066 19.19 47.0392 19.069 46.9054C19.0005 46.8315 13.9701 41.4146 7.76429 41.8231C7.42598 41.8449 7.13054 41.5883 7.10805 41.2483C7.08563 40.9084 7.34355 40.615 7.6829 40.5926C14.5011 40.1442 19.7605 45.8328 19.981 46.0747C20.2102 46.3273 20.1919 46.717 19.9392 46.9461C19.8216 47.0542 19.6727 47.1067 19.5251 47.1066Z" fill="#F2F5F9"/>
<path fill-rule="evenodd" clip-rule="evenodd" d="M20.1418 46.9429H22.4765V28.8159H20.1418V46.9429ZM23.0931 48.1761H19.5252C19.1847 48.1761 18.9084 47.9 18.9084 47.5596L18.9085 28.1994C18.9085 27.8588 19.1846 27.5828 19.5251 27.5828H23.0931C23.4336 27.5828 23.7097 27.8589 23.7097 28.1994V47.5595C23.7097 47.9 23.4335 48.1762 23.0931 48.1761Z" fill="#F2F5F9"/>
<path fill-rule="evenodd" clip-rule="evenodd" d="M1.61318 33.9609C1.44615 33.9609 1.30587 34.1015 1.30587 34.2676L1.30594 41.491C1.30594 41.6571 1.44608 41.7977 1.61311 41.7977L6.80084 41.7976C6.9668 41.7976 7.10701 41.6572 7.10701 41.4911L7.10711 34.2676C7.10711 34.1015 6.96676 33.961 6.80084 33.961L1.61318 33.9609ZM6.80084 43.0313H1.61318C0.763166 43.0313 0.0726318 42.3401 0.0726318 41.4911L0.072701 34.2676C0.072701 33.4185 0.763093 32.7279 1.61311 32.7279L6.80084 32.7278C7.64978 32.7278 8.34025 33.4187 8.34025 34.2677L8.34035 41.4911C8.34035 42.3402 7.64974 43.0314 6.80084 43.0313Z" fill="#F2F5F9"/>
<path fill-rule="evenodd" clip-rule="evenodd" d="M4.20712 53.5511C2.94596 53.5511 1.92041 52.5257 1.92041 51.2646L1.92048 42.4142C1.92048 42.0736 2.19657 41.7976 2.53703 41.7976C2.87852 41.7976 3.15365 42.0737 3.15365 42.4142L3.15372 51.2646C3.15372 51.8458 3.62681 52.318 4.20703 52.318C4.78728 52.3179 5.25936 51.8459 5.25936 51.2646V42.4142C5.25936 42.0737 5.53556 41.7976 5.87598 41.7976C6.21643 41.7976 6.4926 42.0737 6.4926 42.4143V51.2647C6.4926 52.5257 5.46704 53.5512 4.20712 53.5511Z" fill="#F2F5F9"/>
<path fill-rule="evenodd" clip-rule="evenodd" d="M11.4394 6.51414C6.33941 6.51414 2.19007 10.6636 2.19007 15.764C2.19014 20.8644 6.33941 25.0137 11.4393 25.0137C16.5404 25.0137 20.6897 20.8644 20.6897 15.764C20.6897 10.6636 16.5404 6.51423 11.4394 6.51414ZM11.4394 26.247C5.65968 26.247 0.956787 21.5444 0.956787 15.764C0.956856 9.98358 5.6596 5.28094 11.4393 5.28094C17.2202 5.28094 21.9229 9.98365 21.9229 15.764C21.923 21.5444 17.2202 26.2471 11.4394 26.247Z" fill="#F2F5F9"/>
<path fill-rule="evenodd" clip-rule="evenodd" d="M8.84558 11.9631V19.5647L15.4282 15.7638L8.84558 11.9631ZM8.22896 21.2493C8.12186 21.2493 8.01588 21.2219 7.92058 21.1668C7.73009 21.0566 7.6123 20.853 7.6123 20.6328L7.61234 10.8952C7.61234 10.6748 7.73002 10.4713 7.92058 10.3612C8.11114 10.2509 8.34664 10.251 8.5372 10.3612L16.9698 15.23C17.1603 15.34 17.278 15.5436 17.278 15.764C17.2781 15.9842 17.1602 16.1879 16.9697 16.2979L8.53727 21.1668C8.44198 21.2219 8.33488 21.2493 8.22896 21.2493Z" fill="#F2F5F9"/>
<path fill-rule="evenodd" clip-rule="evenodd" d="M32.14 1.68181C27.8409 1.68181 24.3424 5.18027 24.3424 9.48024C24.3424 13.7802 27.8408 17.2786 32.14 17.2786C36.4403 17.2785 39.9387 13.7803 39.9387 9.48024C39.9388 5.1802 36.4403 1.68194 32.14 1.68181ZM32.14 18.5117C27.1599 18.5117 23.1091 14.4603 23.1091 9.48018C23.1092 4.50017 27.1599 0.448792 32.14 0.448792C37.12 0.448653 41.172 4.50025 41.172 9.48018C41.1721 14.4603 37.1201 18.5118 32.14 18.5117Z" fill="#F2F5F9"/>
<path fill-rule="evenodd" clip-rule="evenodd" d="M32.14 6.95212C30.7462 6.95212 29.6125 8.08632 29.6125 9.48022C29.6126 10.8743 30.7462 12.0084 32.14 12.0084C33.5339 12.0083 34.6685 10.8743 34.6685 9.48022C34.6686 8.08622 33.5338 6.95219 32.14 6.95212ZM32.14 13.2415C30.0665 13.2415 28.3793 11.5543 28.3793 9.48022C28.3793 7.40625 30.0664 5.71906 32.14 5.71906C34.2147 5.71899 35.9018 7.40631 35.9018 9.48022C35.9019 11.5542 34.2147 13.2416 32.14 13.2415Z" fill="#F2F5F9"/>
<path fill-rule="evenodd" clip-rule="evenodd" d="M44.5967 32.7816H46.1521V31.1668C46.1521 30.8826 46.3458 30.6352 46.622 30.5679C47.1434 30.441 47.6411 30.2346 48.1015 29.9546C48.3446 29.8068 48.6571 29.8444 48.8572 30.0454L49.9996 31.1877L51.1001 30.088L49.9578 28.946C49.7565 28.7448 49.719 28.4324 49.8667 28.1894C50.1472 27.7296 50.3528 27.232 50.4801 26.7106C50.5476 26.4343 50.7949 26.2399 51.0797 26.2399L52.694 26.2398V24.6848H51.0797C50.7949 24.6848 50.5476 24.4905 50.4801 24.2141C50.3528 23.6927 50.1472 23.1952 49.8667 22.7352C49.7191 22.4923 49.7565 22.1797 49.9577 21.9787L51.1001 20.8365L50.0006 19.7369L48.8572 20.8791C48.6571 21.0802 48.3445 21.1178 48.1014 20.9699C47.6411 20.69 47.1433 20.4838 46.622 20.3567C46.3458 20.2894 46.152 20.0421 46.152 19.7577L46.1521 18.1428H44.5967V19.7576C44.5967 20.042 44.4028 20.2895 44.1255 20.3567C43.6053 20.4837 43.1074 20.69 42.6472 20.9701C42.4042 21.1179 42.0915 21.0803 41.8903 20.8793L40.7481 19.7369L39.6487 20.8365L40.7909 21.9785C40.9922 22.1796 41.0296 22.4923 40.8819 22.7352C40.6014 23.1948 40.3958 23.6925 40.2685 24.2141C40.2011 24.4904 39.9537 24.6847 39.669 24.6847L38.0546 24.6846V26.2398H39.6701C39.9537 26.2398 40.201 26.4342 40.2685 26.7106C40.3959 27.2313 40.6014 27.729 40.8819 28.1893C41.0297 28.4322 40.9921 28.7447 40.7909 28.9458L39.6487 30.088L40.7481 31.1877L41.8903 30.0456C42.0915 29.8446 42.4041 29.8071 42.6472 29.955C43.1075 30.2348 43.6042 30.4413 44.1255 30.5682C44.4029 30.6355 44.5965 30.8829 44.5965 31.1673L44.5967 32.7816ZM46.7687 34.0148H43.9801C43.6396 34.0148 43.3633 33.7388 43.3633 33.3983L43.3635 31.6327C43.0444 31.5285 42.7328 31.3998 42.4331 31.247L41.1849 32.4957C40.9441 32.7364 40.5532 32.7366 40.3124 32.4957L38.3405 30.5241C38.2249 30.4085 38.1606 30.2517 38.1606 30.0881C38.1606 29.9244 38.2249 29.7677 38.3405 29.6521L39.5898 28.4029C39.4367 28.103 39.3082 27.7923 39.2044 27.473L37.438 27.4729C37.0977 27.4729 36.8214 27.1969 36.8214 26.8564V24.068C36.8214 23.7275 37.0976 23.4516 37.438 23.4516L39.2044 23.4515C39.3082 23.1319 39.4367 22.8212 39.5898 22.5214L38.3405 21.2725C38.0997 21.0316 38.0996 20.6413 38.3405 20.4005L40.3124 18.4288C40.5533 18.1879 40.944 18.1881 41.1848 18.4289L42.4331 19.6779C42.7339 19.5252 43.0443 19.3964 43.3633 19.2924L43.3635 17.5263C43.3635 17.1857 43.6396 16.9098 43.9799 16.9098L46.7687 16.9097C47.1092 16.9097 47.3853 17.1858 47.3853 17.5264L47.3853 19.2922C47.7044 19.3962 48.0147 19.5251 48.3145 19.6779L49.5638 18.4288C49.8047 18.1879 50.1954 18.1881 50.4363 18.4289L52.4082 20.4004C52.648 20.6412 52.6479 21.0318 52.4081 21.2725L51.1588 22.5214C51.312 22.8213 51.4404 23.1321 51.5442 23.4516L53.3106 23.4515C53.6511 23.4515 53.9272 23.7277 53.9272 24.0682L53.9273 26.8564C53.9273 27.197 53.651 27.4731 53.3106 27.4731L51.5442 27.473C51.4404 27.7926 51.3119 28.1034 51.1588 28.4033L52.4071 29.6521C52.648 29.8929 52.6479 30.2833 52.4071 30.5241L50.4363 32.4957C50.1954 32.7365 49.8047 32.7366 49.5638 32.4957L48.3146 31.2465C48.0148 31.3992 47.7043 31.5282 47.3853 31.6323L47.3853 33.3982C47.3853 33.7388 47.1091 34.0149 46.7687 34.0148Z" fill="#F2F5F9"/>
<path fill-rule="evenodd" clip-rule="evenodd" d="M45.3739 23.3978C44.236 23.3978 43.3099 24.3239 43.3099 25.4623C43.3099 26.6005 44.2359 27.5268 45.3738 27.5268C46.513 27.5268 47.4389 26.6006 47.4389 25.4623C47.439 24.3239 46.5129 23.3978 45.3739 23.3978ZM45.3739 28.7599C43.5562 28.7599 42.0767 27.2807 42.0767 25.4623C42.0767 23.6439 43.5561 22.1646 45.3738 22.1646C47.1927 22.1645 48.6721 23.6439 48.6721 25.4623C48.6722 27.2806 47.1927 28.7599 45.3739 28.7599Z" fill="#F2F5F9"/>
<path fill-rule="evenodd" clip-rule="evenodd" d="M40.4246 37.6527C36.3812 37.6527 33.0925 40.942 33.0925 44.9851C33.0926 49.0284 36.3812 52.3181 40.4245 52.3181C44.4679 52.318 47.7575 49.0284 47.7575 44.9851C47.7575 40.942 44.4678 37.6528 40.4246 37.6527ZM40.4246 53.5512C35.7015 53.5512 31.8593 49.7082 31.8593 44.985C31.8594 40.262 35.7014 36.4195 40.4245 36.4195C45.1476 36.4195 48.9908 40.262 48.9908 44.985C48.9908 49.7081 45.1476 53.5513 40.4246 53.5512Z" fill="#F2F5F9"/>
<path fill-rule="evenodd" clip-rule="evenodd" d="M38.6188 41.9901C37.9637 41.9901 37.4305 42.5236 37.4305 43.179C37.4305 44.5964 38.8864 46.1743 40.4248 47.7234C41.9631 46.1743 43.42 44.5964 43.42 43.179C43.4201 42.5236 42.8858 41.9902 42.2307 41.9902C41.7137 41.9902 41.4096 42.1366 40.976 43.0034C40.8723 43.2121 40.6581 43.3449 40.4248 43.3449C40.1914 43.3449 39.9783 43.2122 39.8734 43.0034C39.4399 42.1366 39.1358 41.9902 38.6188 41.9901ZM40.4248 49.2135C40.2674 49.2135 40.109 49.1525 39.9891 49.0326C38.1242 47.1688 36.1973 45.2408 36.1973 43.179C36.1973 41.8436 37.2839 40.7571 38.6188 40.7571C39.4752 40.757 40.0244 41.0961 40.4248 41.5731C40.8252 41.096 41.3743 40.7571 42.2307 40.7571C43.5667 40.757 44.6533 41.8436 44.6533 43.179C44.6534 45.2408 42.7253 47.1688 40.8604 49.0326C40.7407 49.1524 40.5832 49.2135 40.4248 49.2135Z" fill="#F2F5F9"/>
<path fill-rule="evenodd" clip-rule="evenodd" d="M33.8164 23.0449H26.9661C26.6258 23.0449 26.3495 22.769 26.3495 22.4285C26.3495 22.0878 26.6257 21.8119 26.9661 21.8119L33.8164 21.8118C34.1569 21.8118 34.433 22.0879 34.433 22.4285C34.433 22.769 34.1568 23.045 33.8164 23.0449Z" fill="#F2F5F9"/>
<path fill-rule="evenodd" clip-rule="evenodd" d="M33.8164 26.9171H26.9661C26.6258 26.9171 26.3495 26.6412 26.3495 26.3005C26.3495 25.96 26.6257 25.684 26.9661 25.684L33.8164 25.684C34.1569 25.684 34.433 25.96 34.433 26.3005C34.433 26.6412 34.1568 26.9172 33.8164 26.9171Z" fill="#F2F5F9"/>
<path fill-rule="evenodd" clip-rule="evenodd" d="M33.8164 30.7891H26.9661C26.6258 30.7891 26.3495 30.5133 26.3495 30.1726C26.3495 29.8321 26.6257 29.5561 26.9661 29.5561L33.8164 29.556C34.1569 29.556 34.433 29.8321 34.433 30.1726C34.433 30.5132 34.1568 30.7892 33.8164 30.7891Z" fill="#F2F5F9"/>
<path fill-rule="evenodd" clip-rule="evenodd" d="M33.8164 34.6613H26.9661C26.6258 34.6613 26.3495 34.3854 26.3495 34.0448C26.3495 33.7042 26.6257 33.4282 26.9661 33.4282L33.8164 33.4281C34.1569 33.4281 34.433 33.7043 34.433 34.0448C34.433 34.3853 34.1568 34.6614 33.8164 34.6613Z" fill="#F2F5F9"/>
</svg>
